# xmcd CD database file
#
# Track frame offsets:
#	182
#	38062
#	70887
#	95625
#	114035
#	143402
#	169760
#	192842
#	213235
#	240157
#	264927
#	288317
#
# Disc length: 4248 seconds
#
# Revision: 0
# Processed by: cddbd v1.5.2PL0 Copyright (c) Steve Scherf et al.
# Submitted via: CDex 1.70beta2
#
DISCID=9810960c
DTITLE=Haydn, Franz Joseph - Klassische Kostbarkeiten
DYEAR=1990
DGENRE=Klassik
TTITLE0=Erster Satz: Adagio cantabile - Vivace assai - Sinfonie Nr. 94 G-Dur „Mit dem Paukenschlag" CD 1/3
TTITLE1=Zweiter Satz: Andante - Sinfonie Nr. 94 G-Dur „Mit dem Paukenschlag" CD 1/3
TTITLE2=Dritter Satz: Menuett-Trio - Sinfonie Nr. 94 G-Dur „Mit dem Paukenschlag" CD 1/3
TTITLE3=Vierter Satz: Finale - Sinfonie Nr. 94 G-Dur „Mit dem Paukenschlag" CD 1/3
TTITLE4=Erster Satz: Adagio- Allegro - Sinfonie Nr.  100 G-Dur „Militär-Sinfonie" CD 1/3
TTITLE5=Zweiter Satz: Allegretto - Sinfonie Nr.  100 G-Dur „Militär-Sinfonie" CD 1/3
TTITLE6=Dritter Satz: Menuett - Sinfonie Nr.  100 G-Dur „Militär-Sinfonie" CD 1/3
TTITLE7=Vierter Satz: Finale Presto- Sinfonie Nr.  100 G-Dur „Militär-Sinfonie" CD 1/3
TTITLE8=Erster Satz: Adagio - Allegro - Sinfonie Nr.  104 D-Dur „Londoner Sinfonie" CD 1/3
TTITLE9=Zweiter Satz: Andante - Allegro - Sinfonie Nr.  104 D-Dur „Londoner Sinfonie" CD 1/3
TTITLE10=Dritter Satz: Menuetto: Allegro-Trio - Sinfonie Nr.  104 D-Dur „Londoner Sinfonie" CD 1/3
TTITLE11=Vierter Satz: Finale spirituoso - Sinfonie Nr.  104 D-Dur „Londoner Sinfonie" CD 1/3
EXTD=YEAR: 1990
EXTT0=
EXTT1=
EXTT2=
EXTT3=
EXTT4=
EXTT5=
EXTT6=
EXTT7=
EXTT8=
EXTT9=
EXTT10=
EXTT11=
PLAYORDER=
